<svg width="1600" height="900" viewBox="0 0 1600 900" fill="none" xmlns="http://www.w3.org/2000/svg">
  <g stroke="rgba(255,255,255,0.16)" stroke-width="1.6" stroke-linecap="round">
    <path d="M160 160L360 120L560 180L780 140L980 210L1200 170L1420 230"/>
    <path d="M120 340L320 300L520 360L740 320L960 380L1180 340L1400 400"/>
    <path d="M180 520L380 470L600 540L820 500L1040 560L1260 520L1460 590"/>
    <path d="M140 710L340 660L560 720L780 680L1000 740L1220 700L1440 760"/>

    <path d="M160 160L120 340L180 520L140 710"/>
    <path d="M360 120L320 300L380 470L340 660"/>
    <path d="M560 180L520 360L600 540L560 720"/>
    <path d="M780 140L740 320L820 500L780 680"/>
    <path d="M980 210L960 380L1040 560L1000 740"/>
    <path d="M1200 170L1180 340L1260 520L1220 700"/>
    <path d="M1420 230L1400 400L1460 590L1440 760"/>

    <path d="M360 120L520 360L780 140L960 380L1200 170"/>
    <path d="M320 300L560 180L740 320L980 210L1180 340"/>
    <path d="M380 470L520 360L820 500L960 380L1260 520"/>
    <path d="M340 660L600 540L780 680L1040 560L1220 700"/>
    <path d="M560 720L820 500L1000 740"/>
  </g>

  <g fill="rgba(255,255,255,0.18)">
    <circle cx="160" cy="160" r="3.5"/>
    <circle cx="360" cy="120" r="3.5"/>
    <circle cx="560" cy="180" r="3.5"/>
    <circle cx="780" cy="140" r="3.5"/>
    <circle cx="980" cy="210" r="3.5"/>
    <circle cx="1200" cy="170" r="3.5"/>
    <circle cx="1420" cy="230" r="3.5"/>

    <circle cx="120" cy="340" r="3.5"/>
    <circle cx="320" cy="300" r="3.5"/>
    <circle cx="520" cy="360" r="3.5"/>
    <circle cx="740" cy="320" r="3.5"/>
    <circle cx="960" cy="380" r="3.5"/>
    <circle cx="1180" cy="340" r="3.5"/>
    <circle cx="1400" cy="400" r="3.5"/>

    <circle cx="180" cy="520" r="3.5"/>
    <circle cx="380" cy="470" r="3.5"/>
    <circle cx="600" cy="540" r="3.5"/>
    <circle cx="820" cy="500" r="3.5"/>
    <circle cx="1040" cy="560" r="3.5"/>
    <circle cx="1260" cy="520" r="3.5"/>
    <circle cx="1460" cy="590" r="3.5"/>

    <circle cx="140" cy="710" r="3.5"/>
    <circle cx="340" cy="660" r="3.5"/>
    <circle cx="560" cy="720" r="3.5"/>
    <circle cx="780" cy="680" r="3.5"/>
    <circle cx="1000" cy="740" r="3.5"/>
    <circle cx="1220" cy="700" r="3.5"/>
    <circle cx="1440" cy="760" r="3.5"/>
  </g>
</svg>
